<mxfile host="app.diagrams.net" modified="2023-04-17T08:43:35.626Z" agent="Mozilla/5.0 (Windows NT 10.0; Win64; x64) AppleWebKit/537.36 (KHTML, like Gecko) Chrome/112.0.0.0 Safari/537.36" version="21.1.8" etag="1egaz52Y0TnpXnA_Zbeu" type="github">
  <diagram name="Страница 1" id="8nPnhgm5-0qJk0hR3AoU">
    <mxGraphModel>
      <root>
        <mxCell id="0" />
        <mxCell id="1" parent="0" />
      </root>
    </mxGraphModel>
  </diagram>
</mxfile>
